<?xml version="1.0" encoding="UTF-8"?>
<svg version="1.1" xmlns="http://www.w3.org/2000/svg" width="512" height="512">
<path d="M0 0 C168.96 0 337.92 0 512 0 C512 84.81 512 169.62 512 257 C343.04 257 174.08 257 0 257 C0 172.19 0 87.38 0 0 Z " fill="#524A8F" transform="translate(0,255)"/>
<path d="M0 0 C84.48 0 168.96 0 256 0 C256 63.36 256 126.72 256 192 C171.52 192 87.04 192 0 192 C0 175.17 0 158.34 0 141 C24.75 141 49.5 141 75 141 C75 130.77 75 120.54 75 110 C50.25 110 25.5 110 0 110 C0 100.1 0 90.2 0 80 C4.95 80 9.9 80 15 80 C15 70.1 15 60.2 15 50 C10.05 50 5.1 50 0 50 C0 33.5 0 17 0 0 Z " fill="#342C6D" transform="translate(256,320)"/>
<path d="M0 0 C126.72 0 253.44 0 384 0 C384 21.45 384 42.9 384 65 C342.78415301 65.08820941 301.56839517 65.16205545 260.35248078 65.20426132 C255.48474288 65.20926405 250.61700518 65.21444134 245.74926758 65.21972656 C244.78020319 65.2207758 243.81113881 65.22182505 242.81270883 65.22290608 C227.12908241 65.24030347 211.44551474 65.2718375 195.76192316 65.30861118 C179.66484706 65.34603913 163.5678017 65.36823978 147.47068387 65.37635398 C137.54073781 65.3818379 127.6109578 65.39914812 117.68106285 65.43166587 C110.86846785 65.45283663 104.0559585 65.45919424 97.243333 65.45400551 C93.31486451 65.45144771 89.38668586 65.45532289 85.45826912 65.4768219 C81.85600043 65.49639129 78.25421451 65.49720353 74.65192286 65.48359558 C72.74330456 65.48112455 70.83469132 65.49828326 68.9261567 65.51632524 C57.30233084 65.43610514 48.60770113 62.61991492 40.16796875 54.515625 C34.71013841 48.18257502 32.02956211 41.14312979 31.6875 32.875 C30.99852674 23.46947117 27.53287634 15.86251689 21 9 C14.61187691 3.966159 8.02899978 1.96347997 0 1 C0 0.67 0 0.34 0 0 Z " fill="#675DB4" transform="translate(128,255)"/>
<path d="M0 0 C1.67889565 0.00636726 1.67889565 0.00636726 3.39170837 0.01286316 C6.93717358 0.02954344 10.48205277 0.06717643 14.02734375 0.10546875 C16.44335112 0.12052932 18.85936747 0.13421532 21.27539062 0.14648438 C27.17207211 0.17941201 33.06841604 0.2295044 38.96484375 0.29296875 C39.0585799 16.49677023 39.12896556 32.7004828 39.17209244 48.90449047 C39.19265558 56.42950226 39.22065541 63.95434489 39.26660156 71.47924805 C39.30666206 78.0433886 39.33232189 84.60740655 39.34119773 91.17166597 C39.34638028 94.64252911 39.3584277 98.11304173 39.38776398 101.58379173 C39.42036455 105.47283521 39.42079095 109.36154609 39.41894531 113.25073242 C39.43332642 114.38218689 39.44770752 115.51364136 39.46252441 116.67938232 C39.39616544 129.68956967 35.71600836 140.60633481 26.96484375 150.29296875 C19.39619768 157.63900758 9.77425441 163.4417006 -1.06933594 163.40649414 C-2.24009674 163.40638084 -2.24009674 163.40638084 -3.43450928 163.40626526 C-4.26694153 163.40110397 -5.09937378 163.39594269 -5.95703125 163.390625 C-6.81701721 163.38921005 -7.67700317 163.3877951 -8.56304932 163.38633728 C-11.30378734 163.38074972 -14.04444301 163.3681995 -16.78515625 163.35546875 C-18.64583215 163.35045214 -20.50650934 163.34588952 -22.3671875 163.34179688 C-26.92323417 163.3316362 -31.47910326 163.31205836 -36.03515625 163.29296875 C-36.03515625 153.06296875 -36.03515625 142.83296875 -36.03515625 132.29296875 C-33.65039062 132.24398437 -31.265625 132.195 -28.80859375 132.14453125 C-26.48512796 132.09043752 -24.16176068 132.03316314 -21.83837891 131.97558594 C-20.23038143 131.93743116 -18.62230252 131.90255527 -17.01416016 131.87109375 C-14.69534309 131.82514815 -12.37708005 131.76720494 -10.05859375 131.70703125 C-8.98948257 131.68970444 -8.98948257 131.68970444 -7.89877319 131.67202759 C-3.60658574 131.54665583 -0.00134125 130.9607657 3.96484375 129.29296875 C5.33125273 127.56134912 5.33125273 127.56134912 5.96484375 125.29296875 C6.63151042 123.29296875 7.29817708 121.29296875 7.96484375 119.29296875 C7.02125 119.32777344 6.07765625 119.36257812 5.10546875 119.3984375 C-9.86286976 119.714035 -21.90981607 117.0307313 -33.28515625 106.66796875 C-45.16436285 94.01925889 -45.37868545 78.14603744 -45.29589844 61.81152344 C-45.28517464 59.29728078 -45.29585111 56.78375237 -45.30859375 54.26953125 C-45.32489144 36.98609789 -43.70812334 23.51059768 -31.359375 10.48828125 C-22.23618317 1.87108157 -12.2444353 -0.17733523 0 0 Z M-12.03515625 35.29296875 C-14.2243444 39.9237689 -14.3421903 44.46850584 -14.3359375 49.5078125 C-14.34022263 50.28177872 -14.34450775 51.05574493 -14.34892273 51.85316467 C-14.35464064 53.48274766 -14.35518511 55.11235616 -14.35083008 56.74194336 C-14.34767 59.21968585 -14.37116014 61.69623289 -14.39648438 64.17382812 C-14.39875781 65.76432143 -14.39946066 67.3548179 -14.3984375 68.9453125 C-14.40764725 69.67781723 -14.41685699 70.41032196 -14.42634583 71.1650238 C-14.37138812 77.3487651 -13.10641425 82.16720396 -8.66015625 86.73046875 C-3.70335542 89.150599 -3.70335542 89.150599 7.96484375 88.29296875 C7.96484375 69.48296875 7.96484375 50.67296875 7.96484375 31.29296875 C-6.1501716 29.73123113 -6.1501716 29.73123113 -12.03515625 35.29296875 Z " fill="#1C9FAD" transform="translate(379.03515625,47.70703125)"/>
<path d="M0 0 C10.23 0 20.46 0 31 0 C31 55.11 31 110.22 31 167 C-32.18903592 167 -32.18903592 167 -46.21875 153.93359375 C-53.22135877 146.6304999 -58.05529031 137.46480499 -58.17700195 127.22241211 C-58.18983719 126.277202 -58.20267242 125.33199188 -58.21589661 124.35813904 C-58.22328354 123.34147659 -58.23067047 122.32481415 -58.23828125 121.27734375 C-58.246353 120.22148575 -58.25442474 119.16562775 -58.26274109 118.07777405 C-58.27656769 115.84100987 -58.2872962 113.60422471 -58.29516602 111.36743164 C-58.30665899 109.09327967 -58.32706787 106.8191541 -58.35668945 104.54516602 C-58.39963633 101.24737336 -58.41557535 97.95038236 -58.42578125 94.65234375 C-58.44328934 93.64985092 -58.46079742 92.64735809 -58.47883606 91.61448669 C-58.44565503 80.64390298 -54.71641591 71.59570503 -48 63 C-47.52175781 62.38382813 -47.04351562 61.76765625 -46.55078125 61.1328125 C-40.69790386 54.49856861 -31.49987012 50.12496753 -23 48 C-15.41 48 -7.82 48 0 48 C0 32.16 0 16.32 0 0 Z M-24 83 C-29.2975058 90.12423194 -28.21640171 98.77483227 -28.25 107.25 C-28.270625 108.53519531 -28.29125 109.82039063 -28.3125 111.14453125 C-28.34108051 118.11103091 -28.31254644 124.7050733 -25 131 C-22.31710514 133.68289486 -20.58243222 134.80585593 -17 136 C-11.39 136 -5.78 136 0 136 C0 117.19 0 98.38 0 79 C-16.70569954 77.33589941 -16.70569954 77.33589941 -24 83 Z " fill="#2ED498" transform="translate(58,0)"/>
<path d="M0 0 C4.92650633 -0.09251655 9.84992394 -0.1719364 14.77661133 -0.21972656 C16.44761442 -0.239675 18.11854924 -0.26684401 19.78930664 -0.30175781 C34.18215268 -0.59469811 44.99914573 0.83874126 56 11 C65.0642626 19.75454976 68.79431906 30.63759007 69.17456055 43.07693481 C69.25589075 47.90948607 69.22537968 52.74131927 69.1953125 57.57421875 C69.19157513 59.35211527 69.18873159 61.13001388 69.18673706 62.90791321 C69.17915756 67.5520919 69.15955892 72.19614241 69.1373291 76.840271 C69.1167472 81.59336616 69.10770913 86.34648235 69.09765625 91.09960938 C69.07630682 100.39979543 69.0422408 109.69988699 69 119 C62.52628257 119.07671463 56.05268443 119.12887575 49.57861328 119.16479492 C47.38097757 119.1797854 45.18337129 119.20018466 42.98583984 119.22631836 C24.79506979 119.43707013 9.76449686 119.27451111 -4.3125 106.25 C-12.97361996 97.0989581 -15.45167919 86.00550353 -15.24609375 73.71875 C-14.54991198 63.19866991 -10.07657144 53.53527028 -2.375 46.25 C6.65275513 38.90951317 15.97386805 36.05560237 27.3125 35.4375 C28.05306641 35.39431641 28.79363281 35.35113281 29.55664062 35.30664062 C31.37091464 35.20129568 33.1854355 35.10021684 35 35 C31.45563638 31.6469071 28.60636946 31.5861961 23.828125 31.48828125 C22.5793457 31.45516846 21.33056641 31.42205566 20.04394531 31.38793945 C18.46194336 31.36304443 16.87994141 31.33814941 15.25 31.3125 C10.2175 31.209375 5.185 31.10625 0 31 C0 20.77 0 10.54 0 0 Z M19.125 69.375 C15.83912898 73.43401714 15.55572257 75.75752628 16 81 C18.18562891 84.51261789 20.14463439 86.54772546 24 88 C27.50869414 88.24172707 27.50869414 88.24172707 31.25 88.125 C34.59125 88.063125 34.59125 88.063125 38 88 C38 81.07 38 74.14 38 67 C28.04421454 65.94233137 28.04421454 65.94233137 19.125 69.375 Z " fill="#2ED498" transform="translate(160,48)"/>
<path d="M0 0 C59.0989011 0 59.0989011 0 71.9375 11.77734375 C79.88323621 20.15119075 83.16569959 29.93130745 83.11352539 41.25683594 C83.11367142 42.08647354 83.11381744 42.91611115 83.1139679 43.77088928 C83.11327212 46.5087446 83.10549539 49.24653159 83.09765625 51.984375 C83.09579088 53.88437869 83.09436754 55.78438286 83.09336853 57.68438721 C83.08955273 62.68208141 83.07973041 67.67974649 83.06866455 72.6774292 C83.05843031 77.77843838 83.05386659 82.87945226 83.04882812 87.98046875 C83.03810732 97.98699401 83.02051808 107.99349003 83 118 C72.77 118 62.54 118 52 118 C51.970271 114.39626465 51.970271 114.39626465 51.93994141 110.71972656 C51.87305548 102.78476787 51.79541564 94.84994072 51.71247292 86.91513443 C51.66251218 82.1039341 51.61618206 77.2927557 51.578125 72.48144531 C51.54126946 67.83887322 51.49490868 63.19648472 51.44193649 58.55406952 C51.42339399 56.7822771 51.40828549 55.01044533 51.39665604 53.23859406 C51.37979113 50.75815502 51.35075568 48.27813633 51.31884766 45.79785156 C51.31668747 45.06417358 51.31452728 44.33049561 51.31230164 43.57458496 C51.25218557 39.92011375 51.15970601 37.0291995 49 34 C44.3766248 30.55539791 44.3766248 30.55539791 30 31 C30 59.71 30 88.42 30 118 C20.1 118 10.2 118 0 118 C0 79.06 0 40.12 0 0 Z " fill="#1C9FAD" transform="translate(241,48)"/>
<path d="M0 0 C9.66699842 6.21889707 17.17089876 14.64982 20.55021667 25.81846619 C21.06892249 28.33428705 21.14942762 30.66730742 21.17700195 33.23657227 C21.19625481 34.80454308 21.19625481 34.80454308 21.21589661 36.40419006 C21.22328354 37.53022141 21.23067047 38.65625275 21.23828125 39.81640625 C21.246353 40.98324448 21.25442474 42.1500827 21.26274109 43.35227966 C21.27657173 45.82443766 21.28729844 48.29661467 21.29516602 50.76879883 C21.306665 53.28545768 21.32708344 55.80209254 21.35668945 58.31860352 C21.39957497 61.9638723 21.41556699 65.60841579 21.42578125 69.25390625 C21.44328934 70.36576797 21.46079742 71.4776297 21.47883606 72.6231842 C21.44478063 85.04814093 17.44442961 94.13277481 9.03515625 103.09375 C1.03689769 110.84613081 -8.96429349 114.98739514 -20.125 115.25 C-31.91859589 115.0517883 -42.21007729 110.67811247 -50.8125 102.6875 C-59.71606151 93.1554518 -62.4688878 81.83443372 -62.43359375 69.1328125 C-62.4388356 68.0174411 -62.44407745 66.9020697 -62.44947815 65.75289917 C-62.45587192 63.40477324 -62.45459586 61.05661516 -62.44604492 58.70849609 C-62.43754129 55.14231527 -62.46632594 51.57774155 -62.49804688 48.01171875 C-62.49965945 45.71875047 -62.49908027 43.4257794 -62.49609375 41.1328125 C-62.50732773 40.08038361 -62.51856171 39.02795471 -62.53013611 37.94363403 C-62.41979977 26.0501706 -58.27025704 15.83526922 -50.22265625 7.0625 C-37.45044033 -5.05673965 -15.63722119 -8.6873451 0 0 Z M-29 30 C-30.72948131 32.8537507 -31.25634809 35.00466949 -31.29052734 38.32202148 C-31.30328705 39.16647324 -31.31604675 40.01092499 -31.32919312 40.88096619 C-31.33141876 41.78520828 -31.33364441 42.68945038 -31.3359375 43.62109375 C-31.3425943 44.55800552 -31.3492511 45.4949173 -31.35610962 46.46022034 C-31.36622455 48.43968749 -31.370927 50.41918867 -31.37060547 52.39868164 C-31.37497941 55.42326103 -31.4113132 58.44638175 -31.44921875 61.47070312 C-31.45508703 63.39582835 -31.45905635 65.3209605 -31.4609375 67.24609375 C-31.47530853 68.14831161 -31.48967957 69.05052948 -31.50448608 69.98008728 C-31.47415408 74.15828331 -31.369986 76.40505368 -29.11962891 80.02368164 C-26.73705003 82.24517162 -25.17087794 83.24502906 -22 84 C-17.14183124 83.7975763 -14.38742629 82.48152147 -11 79 C-9.01696186 74.33400256 -8.70596397 70.00513099 -8.734375 65.00390625 C-8.73246155 64.25213608 -8.7305481 63.50036591 -8.72857666 62.72581482 C-8.7272219 61.14329695 -8.7308686 59.5607677 -8.73925781 57.97827148 C-8.74995265 55.57314742 -8.73934644 53.16877273 -8.7265625 50.76367188 C-8.72788451 49.21874837 -8.73044777 47.67382533 -8.734375 46.12890625 C-8.73032654 45.4182753 -8.72627808 44.70764435 -8.72210693 43.97547913 C-8.77529392 38.23158185 -9.26172116 32.99390808 -13.125 28.5625 C-18.62490263 25.57342248 -24.0939789 25.95974733 -29 30 Z " fill="#1B9FAD" transform="translate(491,52)"/>
<path d="M0 0 C42.24 0 84.48 0 128 0 C128 21.45 128 42.9 128 65 C111.22114809 65.16043524 111.22114809 65.16043524 104.00976562 65.1953125 C99.10960328 65.21912497 94.20974294 65.24714195 89.30981445 65.30175781 C85.35457893 65.34556259 81.39966773 65.3692092 77.44420815 65.37950897 C75.94327001 65.38683881 74.44234746 65.40115047 72.9415493 65.42292023 C59.80253162 65.6057415 49.87480793 63.83665976 40.16796875 54.515625 C34.71013841 48.18257502 32.02956211 41.14312979 31.6875 32.875 C30.99852674 23.46947117 27.53287634 15.86251689 21 9 C14.61187691 3.966159 8.02899978 1.96347997 0 1 C0 0.67 0 0.34 0 0 Z " fill="#8175E2" transform="translate(128,255)"/>
<path d="M0 0 C10.23 0 20.46 0 31 0 C31.06786547 15.97762097 31.12306789 31.95511786 31.15543652 47.93284321 C31.170869 55.3524983 31.19188877 62.77205712 31.22631836 70.19165039 C31.25633213 76.66274766 31.27560127 83.13377516 31.28226548 89.60494012 C31.2861576 93.02760633 31.29522782 96.45007303 31.31719017 99.87267494 C31.33907143 103.70470474 31.34196237 107.53632565 31.34057617 111.3684082 C31.351362 112.48835175 31.36214783 113.60829529 31.3732605 114.76217651 C31.32107144 128.15717777 27.68075785 140.38383201 18.375 150.25 C7.33534799 160.69824208 -3.74374048 163.35267031 -18.5 163.125 C-22.295 163.08375 -26.09 163.0425 -30 163 C-30 152.77 -30 142.54 -30 132 C-20.375 131.75 -20.375 131.75 -17.37646484 131.70214844 C-11.8484157 131.48983202 -8.23810669 130.88601783 -4 127 C-0.18187799 121.36356313 -0.55914788 115.76895878 -0.56762695 109.21142578 C-0.5574353 108.03036758 -0.54724365 106.84930939 -0.53674316 105.63246155 C-0.51179046 102.40764875 -0.49989907 99.18310976 -0.49388909 95.95821619 C-0.48448565 92.58290321 -0.45828075 89.20772092 -0.43388367 85.83248901 C-0.39026895 79.44721594 -0.36169122 73.06196831 -0.33856028 66.67659175 C-0.31148155 59.40444787 -0.26757176 52.13243579 -0.22227156 44.86038613 C-0.12949732 29.90698149 -0.06000527 14.95357878 0 0 Z " fill="#2ED498" transform="translate(106,48)"/>
<path d="M0 0 C49.5 0 99 0 150 0 C150 9.9 150 19.8 150 30 C100.5 30 51 30 0 30 C0 20.1 0 10.2 0 0 Z " fill="#2ED297" transform="translate(181,430)"/>
<path d="M0 0 C31.68 0 63.36 0 96 0 C96 0.33 96 0.66 96 1 C95.32195312 1.07476562 94.64390625 1.14953125 93.9453125 1.2265625 C84.3980721 2.57534162 76.24819724 6.25163078 70.24609375 14.0390625 C66.4957312 19.94088695 64.87952917 25.40035826 64.5625 32.375 C64.01911649 42.4039695 60.60251335 50.59391648 53.109375 57.3828125 C45.38564207 63.30434108 37.01092258 65.3273632 27.44140625 65.1953125 C26.7407605 65.19329834 26.04011475 65.19128418 25.3182373 65.18920898 C22.73292371 65.17884588 20.14770438 65.15092431 17.5625 65.125 C11.766875 65.08375 5.97125 65.0425 0 65 C0 43.55 0 22.1 0 0 Z " fill="#8175E2" transform="translate(0,255)"/>
<path d="M0 0 C30.03 0 60.06 0 91 0 C91 9.9 91 19.8 91 30 C60.97 30 30.94 30 0 30 C0 20.1 0 10.2 0 0 Z " fill="#FBB801" transform="translate(361,430)"/>
<path d="M0 0 C30.03 0 60.06 0 91 0 C91 9.9 91 19.8 91 30 C60.97 30 30.94 30 0 30 C0 20.1 0 10.2 0 0 Z " fill="#FB7EAA" transform="translate(60,430)"/>
<path d="M0 0 C30.03 0 60.06 0 91 0 C91 9.9 91 19.8 91 30 C60.97 30 30.94 30 0 30 C0 20.1 0 10.2 0 0 Z " fill="#32A5FC" transform="translate(301,370)"/>
<path d="M0 0 C30.03 0 60.06 0 91 0 C91 9.9 91 19.8 91 30 C60.97 30 30.94 30 0 30 C0 20.1 0 10.2 0 0 Z " fill="#99CDFD" transform="translate(120,370)"/>
<path d="M0 0 C24.75 0 49.5 0 75 0 C75 9.57 75 19.14 75 29 C50.25 29 25.5 29 0 29 C0 19.43 0 9.86 0 0 Z " fill="#0DFF92" transform="translate(181,431)"/>
<path d="M0 0 C4.95 0 9.9 0 15 0 C15 38.94 15 77.88 15 118 C10.05 118 5.1 118 0 118 C0 79.06 0 40.12 0 0 Z " fill="#2FD498" transform="translate(241,48)"/>
<path d="M0 0 C10.23 0 20.46 0 31 0 C31 9.9 31 19.8 31 30 C20.77 30 10.54 30 0 30 C0 20.1 0 10.2 0 0 Z " fill="#2ED498" transform="translate(106,0)"/>
<path d="M0 0 C9.9 0 19.8 0 30 0 C30 9.9 30 19.8 30 30 C20.1 30 10.2 30 0 30 C0 20.1 0 10.2 0 0 Z " fill="#FCB801" transform="translate(422,370)"/>
<path d="M0 0 C9.9 0 19.8 0 30 0 C30 9.9 30 19.8 30 30 C20.1 30 10.2 30 0 30 C0 20.1 0 10.2 0 0 Z " fill="#FD5A92" transform="translate(241,370)"/>
<path d="M0 0 C9.9 0 19.8 0 30 0 C30 9.9 30 19.8 30 30 C20.1 30 10.2 30 0 30 C0 20.1 0 10.2 0 0 Z " fill="#FCE802" transform="translate(60,370)"/>
<path d="M0 0 C4.95 0 9.9 0 15 0 C15 9.9 15 19.8 15 30 C10.05 30 5.1 30 0 30 C0 20.1 0 10.2 0 0 Z " fill="#FD7EAA" transform="translate(241,370)"/>
</svg>
